<?xml version="1.0" standalone="no"?>
<!DOCTYPE svg PUBLIC "-//W3C//DTD SVG 20010904//EN"
 "http://www.w3.org/TR/2001/REC-SVG-20010904/DTD/svg10.dtd">
<svg version="1.0" xmlns="http://www.w3.org/2000/svg"
 width="700.000000pt" height="700.000000pt" viewBox="0 0 700.000000 700.000000"
 preserveAspectRatio="xMidYMid meet">
<metadata>
Created by potrace 1.14, written by Peter Selinger 2001-2017
</metadata>
<g transform="translate(0.000000,700.000000) scale(0.100000,-0.100000)"
fill="#000000" stroke="none">
<path d="M625 5520 c0 -1024 2 -1237 13 -1223 10 14 176 292 227 381 15 25
106 178 242 407 66 110 122 207 126 215 4 8 13 24 20 35 14 24 278 467 283
476 2 4 -24 36 -59 72 -71 73 -393 410 -451 471 -53 57 -255 268 -328 344 -34
34 -63 62 -67 62 -3 0 -6 -558 -6 -1240z"/>
<path d="M720 6756 c0 -4 57 -64 326 -343 116 -120 235 -243 264 -273 201
-212 282 -289 298 -280 10 5 87 33 172 64 126 44 1131 403 1690 602 69 25 145
52 170 61 25 8 54 19 65 23 11 5 52 20 90 33 39 14 126 46 195 71 l125 45
-1697 1 c-934 0 -1698 -2 -1698 -4z"/>
<path d="M4195 6739 c-27 -11 -59 -23 -70 -28 -11 -5 -144 -55 -295 -111 -151
-56 -322 -120 -380 -141 -58 -22 -136 -52 -175 -66 -38 -14 -108 -40 -155 -58
-47 -18 -167 -63 -268 -100 -100 -38 -179 -72 -175 -75 5 -4 50 -25 101 -49
51 -23 141 -65 198 -92 58 -27 107 -49 109 -49 2 0 50 -22 107 -49 138 -65
244 -114 358 -166 94 -42 153 -70 359 -166 57 -27 105 -49 106 -49 2 0 52 -23
112 -51 59 -28 131 -61 158 -74 28 -12 79 -36 115 -53 130 -60 487 -225 579
-268 51 -24 95 -44 97 -44 1 0 55 -25 119 -55 65 -30 118 -55 120 -55 1 0 61
-27 131 -61 71 -33 143 -67 159 -74 17 -8 196 -91 399 -184 282 -130 363 -164
345 -144 -13 15 -33 36 -44 48 -11 12 -57 62 -101 111 -113 123 -124 135 -234
254 -53 58 -152 166 -220 240 -68 74 -126 137 -129 140 -3 3 -26 28 -51 55
-40 45 -223 244 -275 299 -11 12 -40 44 -65 72 -25 27 -90 99 -146 159 -56 61
-112 122 -125 136 -13 15 -64 71 -114 124 -49 54 -97 106 -105 115 -8 9 -58
63 -110 120 -52 56 -106 115 -120 130 -14 15 -63 69 -110 120 -103 112 -149
160 -152 159 -2 -1 -25 -10 -53 -20z"/>
<path d="M5070 4966 c0 -2 -63 -190 -141 -417 -78 -228 -147 -432 -154 -454
-8 -22 -70 -206 -140 -410 -70 -203 -130 -381 -135 -395 -4 -14 -72 -211 -149
-439 -78 -228 -141 -416 -141 -419 0 -3 111 93 176 153 6 6 50 46 99 90 48 44
93 85 99 90 6 6 54 48 106 95 52 47 101 92 110 100 9 8 51 47 95 85 43 39 88
79 99 90 12 11 62 56 111 100 50 44 95 85 101 90 45 41 209 190 259 234 33 30
67 61 76 70 8 9 42 39 75 68 32 28 73 63 89 78 46 42 115 105 175 160 30 28
90 81 133 120 44 38 93 83 111 100 40 37 190 173 222 200 25 22 31 35 15 35
-6 0 -52 20 -103 44 -51 24 -120 56 -153 71 -171 78 -544 249 -620 285 -33 15
-82 38 -110 50 -66 30 -168 77 -229 106 -45 22 -76 30 -76 20z"/>
<path d="M625 2235 c0 -1053 1 -1915 3 -1915 1 0 14 26 28 58 15 31 51 108 80
170 30 63 54 115 54 117 0 1 26 58 59 126 32 68 68 147 81 174 12 28 43 93 68
145 24 52 71 151 102 220 32 69 76 163 98 210 55 116 179 383 210 450 13 30
51 110 83 178 33 68 59 125 59 127 0 2 26 59 59 127 32 68 84 179 116 248 32
69 76 163 98 210 22 47 57 123 79 170 22 47 60 129 85 183 26 53 44 99 42 101
-5 4 -352 207 -400 234 -20 11 -67 39 -104 61 -37 23 -69 41 -71 41 -3 0 -173
100 -204 120 -8 6 -22 13 -30 17 -8 4 -31 16 -50 28 -19 12 -78 47 -130 77
-52 30 -162 94 -244 142 -82 48 -154 90 -160 92 -8 3 -11 -494 -11 -1911z"/>
<path d="M4211 2300 c17 -47 44 -119 59 -160 15 -41 76 -205 134 -365 59 -159
115 -312 126 -340 84 -224 260 -702 260 -708 0 -2 8 -22 17 -43 9 -22 18 -43
19 -49 3 -10 40 -111 91 -246 l28 -76 568 0 567 0 -17 20 c-10 12 -25 28 -33
37 -89 96 -220 239 -299 326 -30 32 -102 111 -160 174 -95 102 -145 157 -272
295 -103 112 -156 171 -179 195 -14 15 -61 66 -105 115 -44 48 -96 104 -115
124 -30 32 -164 178 -239 260 -13 14 -49 53 -80 87 -31 33 -99 107 -151 164
-52 58 -120 132 -152 165 -31 33 -66 71 -77 85 -18 22 -17 14 10 -60z"/>
<path d="M4155 1506 c-132 -45 -402 -138 -600 -206 -198 -67 -484 -165 -635
-216 -151 -52 -367 -126 -480 -164 -113 -38 -324 -110 -470 -160 -254 -88
-486 -167 -1040 -355 -140 -48 -256 -88 -257 -89 -2 -1 940 -2 2092 -2 1389 1
2095 4 2095 11 1 11 -22 77 -75 220 -19 50 -81 221 -139 380 -131 362 -125
347 -175 485 -23 63 -47 130 -52 148 -5 17 -13 32 -17 31 -4 0 -115 -38 -247
-83z"/>
</g>
</svg>
